<?xml version="1.0"?>
<svg xmlns="http://www.w3.org/2000/svg" viewBox="0 0 64 64" width="512" height="512"><g id="outline"><path d="M29,2a2.981,2.981,0,0,0-2,.78,2.954,2.954,0,0,0-4,0A2.972,2.972,0,0,0,18.184,4H14a2.987,2.987,0,0,0-2.22,5A2.987,2.987,0,0,0,14,14h4V29H16V28a5.006,5.006,0,0,0-5-5H8v3a4.948,4.948,0,0,0,1.026,3H3a1,1,0,0,0-1,1v4a1,1,0,0,0,1,1H4.028C4.435,44.174,10.4,52.09,19,56.132V61a1,1,0,0,0,1,1H44a1,1,0,0,0,1-1V56.132C53.6,52.09,59.565,44.174,59.972,35H61a1,1,0,0,0,1-1V30a1,1,0,0,0-1-1H56.974A4.948,4.948,0,0,0,58,26V23H55a4.993,4.993,0,0,0-4.679,3.29A4.939,4.939,0,0,0,43,27.031,4.983,4.983,0,0,0,34.1,29H32V14H62V4H31.816A3,3,0,0,0,29,2ZM25,4a1,1,0,0,1,1,1V29H24V5A1,1,0,0,1,25,4ZM14,6h4V8H14a1,1,0,0,1,0-2Zm0,6a1,1,0,0,1,0-2h4v2Zm6-7a1,1,0,0,1,2,0V29H20ZM10,26V25h1a3,3,0,0,1,3,3v1H13A3,3,0,0,1,10,26ZM7.239,41H56.761a20.986,20.986,0,0,1-.842,2H8.081A20.986,20.986,0,0,1,7.239,41ZM43,60H21V56.987a31.061,31.061,0,0,0,22,0ZM32,57c-9.834,0-18.4-4.858-22.821-12H54.821C50.4,52.142,41.834,57,32,57ZM57.373,39H6.627a20.427,20.427,0,0,1-.6-4H57.976A20.427,20.427,0,0,1,57.373,39ZM52,28a3,3,0,0,1,3-3h1v1a3,3,0,0,1-3,3H52Zm-5-1a3.006,3.006,0,0,1,2.829,2H44.171A3.006,3.006,0,0,1,47,27Zm-8,0a3.006,3.006,0,0,1,2.829,2H36.171A3.006,3.006,0,0,1,39,27Zm21,4v2H4V31ZM30,29H28V5a1,1,0,0,1,2,0ZM60,12H32V10H60Zm0-4H32V6H60Z"/><rect x="15" y="47" width="2" height="2"/><rect x="19" y="49" width="2" height="2"/></g></svg>
